<?xml version="1.0" standalone="no"?>
<!DOCTYPE svg PUBLIC "-//W3C//DTD SVG 20010904//EN"
 "http://www.w3.org/TR/2001/REC-SVG-20010904/DTD/svg10.dtd">
<svg version="1.0" xmlns="http://www.w3.org/2000/svg"
 width="226.000000pt" height="226.000000pt" viewBox="0 0 226.000000 226.000000"
 preserveAspectRatio="xMidYMid meet">
<metadata>
Created by potrace 1.14, written by Peter Selinger 2001-2017
</metadata>
<g transform="translate(0.000000,226.000000) scale(0.100000,-0.100000)"
fill="#000000" stroke="none">
<path d="M666 2128 c-19 -44 -20 -60 -5 -75 7 -7 2 -17 -20 -32 l-30 -22 -11
38 c-15 56 -24 67 -39 49 -20 -24 -25 -81 -9 -97 13 -11 12 -16 -8 -36 -30
-30 -41 -29 -49 6 -3 16 -14 36 -24 45 -18 16 -19 15 -29 -13 -14 -39 -8 -82
12 -96 14 -10 12 -15 -14 -40 -21 -20 -30 -24 -30 -14 0 9 -16 33 -35 55 l-34
39 -2 -30 c-6 -73 -1 -97 21 -112 12 -9 18 -18 13 -22 -5 -3 -16 -17 -25 -30
l-16 -23 -15 28 c-18 34 -55 70 -63 61 -3 -3 -7 -24 -7 -46 -1 -45 19 -91 40
-91 17 0 16 -4 -3 -41 l-15 -30 -39 41 c-47 50 -66 48 -63 -5 3 -46 25 -83 58
-95 23 -9 23 -10 7 -44 l-16 -35 -29 29 c-16 16 -43 34 -59 39 -27 10 -28 9
-24 -17 2 -15 5 -28 6 -29 2 -2 3 -6 4 -10 11 -47 54 -91 76 -78 5 3 9 -13 7
-40 -1 -25 -3 -45 -4 -45 -1 0 -10 8 -20 18 -19 20 -102 56 -110 48 -3 -3 0
-22 7 -43 17 -52 57 -93 91 -93 24 0 27 -3 27 -40 l1 -40 -38 19 c-39 21 -111
38 -111 27 0 -10 37 -78 52 -97 12 -14 46 -33 58 -32 3 1 14 3 25 7 16 5 21 1
22 -17 1 -12 5 -32 8 -44 6 -24 -4 -30 -21 -13 -5 5 -38 13 -72 16 -50 6 -62
4 -62 -7 0 -23 28 -58 72 -89 33 -25 44 -27 66 -19 15 6 30 16 34 22 5 8 8 3
8 -10 0 -13 4 -23 8 -23 5 0 9 -6 9 -12 0 -7 3 -23 7 -35 7 -22 6 -22 -21 -8
-20 11 -46 13 -88 9 -33 -3 -61 -7 -63 -8 -9 -10 87 -88 119 -98 32 -9 42 -8
64 6 15 10 28 16 29 14 16 -24 34 -56 39 -70 5 -14 2 -16 -16 -9 -12 4 -26 7
-32 6 -32 -3 -92 -18 -109 -27 -18 -10 -18 -11 5 -32 70 -63 189 -74 189 -18
0 12 11 5 40 -23 21 -22 39 -42 40 -45 0 -3 -18 -6 -40 -7 -41 -3 -140 -46
-140 -62 0 -7 79 -43 95 -42 2 0 17 -4 33 -8 40 -12 89 10 98 44 4 15 9 23 13
18 3 -5 23 -22 44 -38 l39 -29 -40 -11 c-48 -15 -134 -73 -129 -88 9 -27 146
-43 189 -21 24 13 45 47 40 67 -1 5 7 5 19 2 27 -9 89 -45 89 -53 0 -3 -3 -3
-6 1 -18 17 -159 -102 -151 -127 5 -16 103 -20 153 -6 52 15 76 39 78 79 1 33
-1 33 89 6 36 -11 39 -13 20 -19 -37 -12 -131 -145 -117 -167 3 -5 22 -7 42
-3 20 4 44 8 53 10 32 5 98 44 113 66 18 25 21 69 6 84 -6 6 32 9 104 9 l112
0 -9 -26 c-16 -41 9 -80 73 -111 55 -26 150 -45 150 -28 0 20 -49 97 -87 136
-23 24 -39 45 -35 47 4 3 24 7 45 11 21 4 45 10 52 13 10 3 13 -2 10 -18 -6
-30 19 -67 53 -81 42 -18 182 -20 182 -3 0 23 -99 113 -131 120 l-29 7 34 23
c51 35 71 39 73 15 5 -56 79 -78 188 -55 45 9 52 22 27 45 -30 28 -111 70
-135 70 -17 0 -13 6 19 35 36 31 73 48 59 26 -3 -6 5 -19 17 -30 21 -20 41
-25 83 -22 29 3 125 43 125 53 0 15 -105 61 -141 62 -25 0 -35 5 -32 13 3 7 8
13 12 13 4 0 15 14 25 30 l17 30 19 -22 c29 -36 102 -31 163 11 26 17 47 35
47 40 0 4 -22 13 -50 20 -71 18 -82 19 -107 10 -29 -11 -29 -8 2 41 28 45 30
46 52 25 29 -30 93 -6 154 58 l31 32 -39 7 c-41 7 -86 5 -119 -6 -19 -6 -21
-3 -16 19 2 14 8 25 13 25 5 0 8 3 8 8 -4 26 2 32 20 22 11 -5 30 -10 43 -10
29 0 86 47 112 90 l19 33 -69 -7 c-39 -4 -75 -13 -85 -22 -16 -14 -17 -12 -12
23 6 58 8 60 43 55 23 -3 38 2 57 19 22 22 63 88 63 105 0 9 -70 -6 -102 -22
-15 -8 -31 -15 -35 -17 -4 -1 -8 16 -9 39 -1 38 0 40 23 36 29 -5 58 19 84 70
30 58 26 68 -20 56 -21 -5 -50 -20 -64 -33 -21 -20 -26 -22 -31 -9 -11 28 -7
75 7 73 22 -4 47 13 61 40 16 31 30 101 20 101 -18 0 -84 -46 -95 -67 -13 -24
-13 -24 -29 19 l-16 43 27 8 c27 7 36 21 46 67 16 78 1 86 -55 30 l-42 -40
-15 30 c-15 30 -12 56 5 45 23 -14 48 96 29 126 -7 11 -16 5 -43 -26 -19 -22
-32 -43 -30 -47 3 -4 0 -8 -5 -8 -6 0 -11 4 -11 8 0 5 -9 18 -20 30 -20 21
-20 21 1 35 20 14 24 36 21 106 l-2 35 -30 -29 c-17 -16 -33 -40 -37 -53 l-6
-23 -27 26 c-27 26 -27 28 -10 45 18 18 20 53 6 98 -7 22 -9 23 -26 7 -11 -10
-22 -30 -25 -46 -8 -34 -18 -36 -45 -11 -17 16 -18 22 -8 50 10 26 9 37 -6 69
l-18 38 -18 -35 c-10 -19 -16 -40 -13 -47 3 -8 -3 -13 -14 -13 -25 0 -59 35
-44 45 14 8 5 61 -14 88 -14 20 -14 20 -25 -7 -5 -15 -10 -36 -10 -47 0 -28
-29 -23 -36 6 -8 33 -51 55 -109 55 l-45 0 22 -34 c29 -43 67 -67 101 -61 14
3 29 0 33 -6 4 -8 3 -9 -5 -5 -6 4 -14 0 -17 -8 -3 -9 -10 -14 -14 -11 -4 3
-11 -2 -14 -10 -11 -31 69 -38 98 -10 13 13 19 13 36 3 21 -13 27 -28 11 -28
-4 0 -21 -10 -37 -22 l-28 -22 25 -7 c42 -12 77 -10 93 6 14 14 18 14 42 -1
l26 -18 -43 -16 c-54 -21 -59 -35 -18 -49 43 -15 75 -14 92 3 13 13 17 12 37
-10 20 -20 21 -24 7 -25 -9 -1 -20 -2 -24 -4 -53 -14 -63 -19 -60 -29 4 -13
40 -31 78 -41 17 -4 31 -1 41 9 14 13 18 13 37 -8 28 -30 27 -36 -11 -36 -42
0 -78 -10 -78 -21 0 -11 83 -59 102 -59 9 0 21 7 29 16 11 14 14 12 27 -13 9
-15 15 -30 14 -32 -1 -2 -24 -4 -51 -4 -65 1 -76 -7 -50 -36 29 -31 84 -53
113 -45 20 5 25 0 35 -26 9 -29 9 -31 -7 -25 -24 9 -122 17 -122 10 0 -4 12
-22 27 -41 35 -46 77 -68 102 -54 20 10 20 11 37 -52 5 -16 2 -16 -38 2 -24
11 -58 20 -76 20 l-33 0 23 -41 c31 -56 65 -81 103 -77 31 3 33 -3 26 -66 -1
-5 -9 -2 -18 6 -22 20 -89 48 -114 48 -17 0 -17 -2 3 -49 25 -61 49 -84 88
-84 32 0 37 -15 24 -64 -6 -21 -7 -20 -36 13 -17 19 -36 34 -44 34 -8 0 -14 4
-14 9 0 5 -11 11 -25 13 -29 6 -29 4 -13 -60 15 -63 36 -90 76 -98 26 -5 32
-10 26 -23 -3 -9 -9 -26 -11 -38 -7 -30 -16 -29 -34 3 -13 26 -93 94 -109 94
-10 0 -6 -85 5 -120 10 -34 45 -70 67 -70 22 0 22 -6 -1 -50 l-19 -34 -21 45
c-22 47 -86 117 -97 107 -3 -4 -8 -33 -11 -65 -7 -73 14 -129 51 -139 14 -3
26 -9 26 -13 0 -3 -15 -23 -34 -43 l-33 -37 -1 35 c-2 50 -63 161 -82 149 -10
-6 -29 -69 -35 -118 -6 -40 19 -94 46 -102 18 -6 19 -8 5 -23 -8 -10 -27 -24
-43 -34 l-28 -16 -1 55 c-1 66 -40 159 -58 140 -21 -21 -56 -102 -59 -138 -4
-39 7 -67 34 -89 19 -15 17 -17 -35 -42 l-55 -27 13 32 c15 37 13 102 -5 165
l-12 43 -34 -38 c-33 -38 -67 -99 -75 -138 -5 -24 18 -75 34 -75 20 0 -6 -20
-33 -25 -13 -3 -37 -7 -52 -11 l-28 -6 25 36 c36 54 49 196 17 196 -15 0 -94
-70 -117 -104 -32 -46 -35 -94 -8 -120 8 -9 14 -17 12 -17 -2 -1 -44 -3 -95
-4 -91 -2 -92 -2 -77 19 38 55 6 127 -92 204 -48 37 -56 31 -50 -41 3 -34 5
-69 5 -78 1 -9 13 -33 27 -54 l25 -38 -28 7 c-15 3 -39 9 -52 12 -14 3 -32 9
-40 14 -14 8 -14 9 2 10 22 0 39 44 34 88 -5 33 -34 84 -79 135 l-25 29 -15
-54 c-17 -59 -15 -142 3 -164 18 -22 -8 -17 -60 10 -42 22 -43 24 -24 34 25
14 42 57 36 92 -5 36 -43 127 -58 140 -20 16 -63 -90 -62 -151 1 -27 0 -49 -3
-49 -3 0 -23 15 -45 34 -37 32 -38 34 -17 40 32 11 53 57 47 105 -7 53 -28
113 -40 114 -13 1 -76 -103 -69 -114 3 -5 1 -9 -4 -9 -5 0 -7 -12 -4 -27 l5
-28 -24 20 c-26 22 -48 47 -49 55 0 3 13 11 28 18 38 16 49 44 50 118 0 92 -9
98 -62 41 -25 -27 -48 -62 -51 -78 -8 -36 -16 -37 -33 -1 -24 50 -25 52 -5 52
23 0 58 35 68 69 4 13 9 46 10 73 2 36 -1 48 -11 48 -8 0 -17 -7 -20 -15 -4
-8 -12 -15 -18 -15 -13 0 -38 -26 -68 -69 -15 -21 -18 -22 -23 -8 -3 9 -8 25
-12 35 -11 29 -12 42 -3 37 21 -13 58 9 78 44 35 62 41 146 8 114 -4 -5 -12
-8 -16 -8 -5 0 -29 -17 -54 -37 -47 -40 -56 -37 -56 18 0 19 4 23 23 20 31 -4
65 20 88 65 29 58 26 73 -13 65 -18 -4 -50 -18 -70 -31 -21 -14 -38 -24 -39
-23 0 2 -2 20 -3 41 -2 36 -1 37 29 31 26 -4 37 0 66 28 19 18 40 45 47 61 11
26 11 27 -19 27 -16 0 -46 -7 -65 -15 -44 -18 -52 -14 -46 24 4 27 6 29 29 20
16 -6 32 -5 46 2 23 12 87 77 87 88 0 12 -88 13 -95 1 -3 -5 -13 -10 -21 -10
-16 0 -19 36 -4 45 6 4 7 11 4 17 -4 6 3 5 16 -2 35 -19 70 -6 121 45 19 19
19 19 -3 28 -13 5 -42 7 -65 4 l-42 -4 15 28 c16 31 24 35 41 18 14 -14 66 2
103 31 21 17 23 21 10 30 -8 5 -34 10 -57 10 -24 0 -43 5 -43 10 0 6 5 10 10
10 6 0 10 7 10 15 0 16 14 18 45 6 32 -13 115 18 115 42 0 3 -23 10 -51 17
l-50 12 22 24 c19 20 23 21 36 8 17 -17 49 -18 92 -3 41 14 39 24 -9 43 -45
18 -49 26 -20 44 17 10 23 10 36 -3 17 -16 35 -18 83 -9 41 9 39 18 -9 42
l-40 20 25 16 c23 15 27 15 41 1 19 -19 55 -22 93 -9 11 3 10 8 -4 24 -10 11
-24 20 -32 20 -8 0 -11 4 -8 10 3 5 19 7 35 3 25 -4 36 1 74 38 25 24 46 47
46 52 0 11 -73 8 -109 -4 -20 -7 -37 -23 -47 -45 -17 -36 -34 -37 -34 -1 -1
12 -7 33 -15 47 l-14 25 -15 -37z"/>
<path d="M1201 1963 c8 -10 28 -32 46 -50 17 -17 29 -34 26 -37 -4 -3 -2 -6 3
-6 5 0 18 -14 28 -31 13 -21 23 -29 34 -24 11 4 14 3 7 -4 -12 -11 -73 -27
-63 -16 11 12 -77 94 -125 115 -24 11 -61 22 -83 26 l-38 6 77 -77 c42 -42 74
-81 71 -86 -3 -5 2 -9 10 -9 26 0 25 -15 -2 -40 -19 -19 -24 -21 -19 -7 8 21
-26 59 -88 97 -47 30 -113 62 -119 58 -2 -2 -14 6 -26 17 -12 11 -25 19 -29
19 -3 -1 -12 1 -19 4 -24 9 -24 -7 -1 -40 28 -39 58 -66 131 -114 29 -20 65
-48 79 -63 26 -26 26 -26 6 -43 -22 -20 -42 -24 -32 -7 4 6 -2 13 -14 16 -12
3 -21 9 -21 13 0 4 -15 11 -32 15 -48 11 -51 12 -78 5 -30 -8 -110 17 -127 39
-7 9 -13 12 -13 6 0 -5 -4 -4 -9 4 -5 7 -11 9 -14 4 -10 -16 63 -118 93 -132
16 -7 51 -14 77 -15 58 -4 112 -16 119 -27 2 -4 11 -6 19 -2 8 3 15 -1 15 -8
0 -7 3 -10 6 -6 4 3 12 1 20 -6 29 -26 43 -37 49 -37 3 0 14 -9 25 -20 19 -19
76 -24 105 -9 6 3 62 4 125 2 137 -4 150 -5 150 -13 0 -4 6 -7 13 -8 28 -2 48
-9 59 -20 7 -7 16 -12 21 -12 6 0 16 -8 24 -17 10 -12 12 -13 8 -3 -5 12 -4
12 7 -1 28 -34 41 -3 21 51 -3 8 -7 21 -9 29 -5 24 -45 99 -65 119 -10 11 -15
23 -12 26 4 3 -2 6 -12 6 -10 0 -15 3 -12 7 4 3 -23 28 -61 55 -77 55 -81 58
-105 87 -10 12 -22 19 -27 16 -5 -3 -23 15 -40 39 -33 49 -86 94 -116 100 -11
3 -32 9 -48 15 -27 11 -28 10 -15 -6z m-46 -263 c-3 -5 -12 -10 -18 -10 -7 0
-6 4 3 10 19 12 23 12 15 0z m-75 -74 c0 -3 -4 -8 -10 -11 -5 -3 -10 -1 -10 4
0 6 5 11 10 11 6 0 10 -2 10 -4z"/>
<path d="M822 1574 c-150 -44 -230 -165 -213 -322 0 -6 4 -11 9 -10 4 1 27 -2
52 -7 25 -4 94 -9 153 -10 109 -2 109 -2 142 29 32 29 33 32 19 54 -8 12 -12
22 -9 22 3 0 -1 12 -9 28 -25 49 -43 164 -33 215 3 16 -61 16 -111 1z"/>
<path d="M985 1518 c3 -8 7 -26 9 -39 4 -41 20 -96 47 -169 6 -17 17 -29 23
-29 6 1 23 -1 37 -5 14 -4 32 -8 40 -9 8 -2 20 -6 27 -10 6 -5 16 -6 20 -3 5
3 18 -3 30 -14 60 -57 2 127 -64 202 -31 35 -76 69 -98 75 -53 14 -76 15 -71
1z"/>
<path d="M1387 1444 c-3 -4 -36 -8 -72 -9 -37 -2 -69 -6 -71 -8 -2 -2 6 -28
19 -58 13 -30 25 -75 26 -100 1 -25 4 -55 6 -65 2 -10 4 -22 4 -26 1 -5 12 -8
26 -8 14 0 25 -4 25 -8 0 -4 8 -8 18 -9 9 -1 40 -12 67 -24 28 -12 53 -22 58
-21 4 1 7 -2 7 -6 0 -4 16 -14 35 -21 19 -7 35 -17 35 -22 0 -5 9 -9 20 -9 11
0 20 -4 20 -8 0 -4 13 -15 28 -24 15 -9 34 -28 41 -42 8 -14 18 -23 23 -20 4
3 8 0 8 -6 0 -14 29 -44 36 -38 8 8 20 161 14 178 -1 3 -3 21 -5 41 -8 76 -95
258 -122 259 -7 0 -13 4 -13 9 0 11 -86 29 -166 35 -23 2 -46 6 -51 9 -6 4
-13 4 -16 1z"/>
<path d="M1026 1223 c-9 -9 6 -33 20 -33 8 0 14 -4 14 -10 0 -5 7 -10 15 -10
8 0 15 -4 15 -10 0 -5 5 -10 10 -10 6 0 20 -9 32 -20 29 -27 37 -25 52 11 15
35 11 65 -7 67 -31 4 -62 11 -62 13 0 4 -85 6 -89 2z"/>
<path d="M516 1168 c4 -24 6 -51 6 -60 -1 -10 4 -18 9 -18 6 0 8 -4 5 -9 -8
-12 34 -111 46 -111 5 0 7 -4 4 -9 -9 -14 78 -96 127 -120 45 -22 85 -22 72
-1 -3 5 -1 10 5 10 6 0 9 4 6 8 -5 8 75 120 125 175 16 17 25 35 21 41 -7 12
-10 26 -16 66 l-3 25 -159 0 c-145 0 -163 2 -201 23 -23 12 -45 22 -48 22 -2
0 -2 -19 1 -42z"/>
<path d="M996 1162 c-15 -25 15 -109 34 -97 5 3 11 1 15 -5 4 -6 17 -4 36 5
33 18 34 16 -38 72 -23 18 -44 29 -47 25z"/>
<path d="M1219 1069 c-54 -59 -67 -79 -50 -79 5 0 14 -13 21 -30 7 -16 16 -30
21 -30 5 0 8 -3 7 -7 -1 -5 10 -33 24 -63 14 -30 26 -59 26 -63 0 -4 8 -19 17
-33 9 -14 14 -28 11 -31 -3 -4 -2 -11 3 -17 8 -10 16 -55 11 -66 -1 -3 -3 -22
-5 -42 -3 -36 -3 -37 23 -25 52 22 172 114 172 131 0 4 10 17 21 29 27 28 99
178 99 206 0 12 -5 21 -11 21 -6 0 -30 13 -53 28 -44 30 -206 114 -206 107 0
-2 -17 2 -38 9 l-38 14 -55 -59z"/>
<path d="M973 993 c-10 -15 -25 -35 -33 -45 -30 -33 -37 -44 -75 -122 -22 -43
-45 -81 -52 -83 -7 -3 -11 -9 -8 -13 3 -5 -4 -11 -15 -15 -34 -11 -22 -32 30
-54 66 -29 120 -38 205 -35 74 2 119 8 157 23 13 5 26 9 31 9 4 1 15 5 24 11
14 7 15 12 5 23 -6 8 -9 18 -6 21 3 3 2 12 -2 19 -5 7 -9 19 -10 27 -4 23 -46
124 -66 159 -11 17 -17 32 -13 32 19 0 -35 39 -60 43 -16 3 -43 10 -58 16 -37
14 -34 15 -54 -16z"/>
</g>
</svg>
